# xmcd
#
# Track frame offsets:
#	183
#	18015
#	31760
#	44105
#
# Disc length: 1063 seconds
#
# Revision: 0
# Processed by: cddbd v1.5.2PL0 Copyright (c) Steve Scherf et al.
# Submitted via: dBpowerAMP V4.0
#
DISCID=26042504
DTITLE=Kitchens of Distinction - Drive That Fast
DYEAR=1990
DGENRE=Indie
TTITLE0=Drive That Fast (7" Edit)
TTITLE1=These Drinkers
TTITLE2=Elephantiny
TTITLE3=Three to Beam up
EXTD=
EXTT0=
EXTT1=
EXTT2=
EXTT3=
PLAYORDER=
